<svg id="Layer_1" data-name="Layer 1" xmlns="http://www.w3.org/2000/svg" viewBox="0 0 283.43 67.75"><defs><style>.cls-1{fill:#393839;}</style></defs><title>FinalLogo</title><polygon class="cls-1" points="85.56 33.14 57.82 67.09 85.56 67.09 85.56 33.14"/><polygon class="cls-1" points="85.56 0 57.82 33.95 85.56 33.95 85.56 0"/><polygon class="cls-1" points="54.53 0.45 0 66.92 54.53 67.09 54.53 0.45"/><polygon class="cls-1" points="102.62 47.67 90.03 67.06 102.62 67.06 102.62 47.67"/><polygon class="cls-1" points="102.62 23.74 90.03 43.12 102.62 43.12 102.62 23.74"/><path class="cls-1" d="M167.73,201.69l-.79,4H164l3.72-18.28h4.1l3.93,18.28h-3.08l-.82-4Zm2-10.8-1.57,8.19h3.17Z" transform="translate(-38.02 -138.18)"/><path class="cls-1" d="M182.81,192v2.36c.72-1.81,1.77-2.55,3.46-2.55v3a3.51,3.51,0,0,0-1.31-.25,2.1,2.1,0,0,0-1.69.71c-.38.47-.46.91-.46,2.19v8.2H180.1V192Z" transform="translate(-38.02 -138.18)"/><path class="cls-1" d="M197.06,194.31h-2.47v7.27c0,1.37.49,1.94,1.68,1.94a3.24,3.24,0,0,0,1-.16v2.3a9,9,0,0,1-1.83.19,3.7,3.7,0,0,1-2.94-1c-.52-.61-.67-1.26-.67-3v-7.54h-2.09V192h2.09v-3.73h2.71V192h2.47Z" transform="translate(-38.02 -138.18)"/><path class="cls-1" d="M215.3,193.33v-.39c0-2.11-.78-3.18-2.26-3.18a1.92,1.92,0,0,0-1.78.91,4.38,4.38,0,0,0-.47,2.63v6.08a7.53,7.53,0,0,0,.32,2.72,2,2,0,0,0,1.93,1.18,2.12,2.12,0,0,0,2.15-1.81,10.38,10.38,0,0,0,.17-2.22h3v.63c0,4-1.83,6.05-5.33,6.05a4.88,4.88,0,0,1-4.33-2c-.73-1.13-.93-2.2-.93-4.91v-5.12c0-2.91.23-3.92,1.13-5.07a5,5,0,0,1,4.11-1.7c3.31,0,5.26,2.08,5.26,5.67v.55Z" transform="translate(-38.02 -138.18)"/><path class="cls-1" d="M231.77,201c0,2.13-.26,3.06-1.13,3.89a5.56,5.56,0,0,1-6.61,0c-.84-.83-1.13-1.76-1.13-3.89v-4.2c0-2.13.29-3.07,1.13-3.89a5.51,5.51,0,0,1,6.61,0c.87.82,1.13,1.76,1.13,3.89Zm-6.17.16c0,1.73.52,2.49,1.72,2.49s1.74-.76,1.74-2.49v-4.52c0-1.76-.52-2.5-1.74-2.5s-1.72.77-1.72,2.5Z" transform="translate(-38.02 -138.18)"/><path class="cls-1" d="M239.1,205.66h-2.71V187.38h2.71Z" transform="translate(-38.02 -138.18)"/><path class="cls-1" d="M246.5,205.66h-2.71V187.38h2.71Z" transform="translate(-38.02 -138.18)"/><path class="cls-1" d="M253.81,199.27v1.21c0,2.38.43,3.12,1.83,3.12a1.54,1.54,0,0,0,1.63-1.15,4.82,4.82,0,0,0,.12-1.5h2.7c0,1.86-.11,2.46-.55,3.15a4.22,4.22,0,0,1-3.9,1.83,4.41,4.41,0,0,1-3.64-1.42,5.69,5.69,0,0,1-.9-3.7v-4.06c0-2.16.26-3.07,1.17-3.89a4.79,4.79,0,0,1,3.28-1.1A4.44,4.44,0,0,1,259,193c.81.87,1.1,1.86,1.1,4v2.24Zm3.55-3c0-1.62-.53-2.28-1.78-2.28s-1.77.66-1.77,2.28V197h3.55Z" transform="translate(-38.02 -138.18)"/><path class="cls-1" d="M270.89,196.75v-.35c0-1.59-.56-2.31-1.75-2.31-1.39,0-1.83.74-1.83,3.13v3.29a4.76,4.76,0,0,0,.35,2.35,1.62,1.62,0,0,0,1.48.74c1.19,0,1.75-.74,1.75-2.38v-.38h2.7v.52a4.34,4.34,0,0,1-1,3.31,4.55,4.55,0,0,1-3.44,1.26,4.45,4.45,0,0,1-3.64-1.42c-.67-.85-.9-1.81-.9-3.67v-4c0-1.86.23-2.85.9-3.7a4.42,4.42,0,0,1,3.64-1.43,4.58,4.58,0,0,1,3.44,1.24,4.24,4.24,0,0,1,1,3.26v.49Z" transform="translate(-38.02 -138.18)"/><path class="cls-1" d="M284.74,194.31h-2.48v7.27c0,1.37.5,1.94,1.69,1.94a3.27,3.27,0,0,0,1.05-.16v2.3a9.1,9.1,0,0,1-1.83.19,3.7,3.7,0,0,1-2.94-1c-.53-.61-.67-1.26-.67-3v-7.54h-2.1V192h2.1v-3.73h2.7V192h2.48Z" transform="translate(-38.02 -138.18)"/><path class="cls-1" d="M291.72,190H289v-2.66h2.71Zm0,15.62H289V192h2.71Z" transform="translate(-38.02 -138.18)"/><path class="cls-1" d="M305.2,201c0,2.13-.26,3.06-1.14,3.89a5.54,5.54,0,0,1-6.6,0c-.84-.83-1.14-1.76-1.14-3.89v-4.2c0-2.13.3-3.07,1.14-3.89a5.5,5.5,0,0,1,6.6,0c.88.82,1.14,1.76,1.14,3.89Zm-6.17.16c0,1.73.52,2.49,1.72,2.49s1.74-.76,1.74-2.49v-4.52c0-1.76-.52-2.5-1.74-2.5s-1.72.77-1.72,2.5Z" transform="translate(-38.02 -138.18)"/><path class="cls-1" d="M312.52,193.79a4.76,4.76,0,0,1,3.61-1.94c1.6,0,2.36,1,2.36,3.18v10.63h-2.71v-10c0-1.2-.26-1.59-1-1.59a3,3,0,0,0-2.21,1.37v10.2h-2.7V192h2.7Z" transform="translate(-38.02 -138.18)"/><path class="cls-1" d="M183.47,164.81c0,4.15-.62,6.64-2.13,8.74-1.68,2.32-4.48,3.54-8.06,3.54s-6.38-1.22-8.06-3.54c-1.51-2.1-2.13-4.59-2.13-8.74V151.37c0-4.15.62-6.64,2.13-8.74,1.68-2.32,4.48-3.54,8.06-3.54s6.38,1.22,8.06,3.54c1.51,2.1,2.13,4.59,2.13,8.74Zm-14.61-.11c0,2.93.16,3.93.72,5a4.43,4.43,0,0,0,7.4,0c.61-1.16.72-2,.72-5V151.48c0-3-.11-3.87-.72-5a4.42,4.42,0,0,0-7.4,0c-.56,1.1-.72,2.1-.72,5Z" transform="translate(-38.02 -138.18)"/><path class="cls-1" d="M209.36,144.9H198.22v9.73h8.23v5.26h-8.23v11.39h11.14v5.26h-16.9v-36.9h16.9Z" transform="translate(-38.02 -138.18)"/><path class="cls-1" d="M237.34,139.64v25c0,4.65-.56,7-2.13,9.13s-4.37,3.32-7.73,3.32-6.15-1.16-7.78-3.32-2.12-4.48-2.12-9.13v-25h5.76v25.94c0,4.37,1.18,6.14,4.14,6.14s4.09-1.77,4.09-6.14V139.64Z" transform="translate(-38.02 -138.18)"/><path class="cls-1" d="M253.45,176.54l-8-36.9h6l5.6,28.05L262,139.64h5.88l-7.22,36.9Z" transform="translate(-38.02 -138.18)"/><path class="cls-1" d="M281.71,176.54H276v-36.9h9c3.41,0,5.6.67,7.39,2.21,2.24,1.88,3.36,4.71,3.36,8.36,0,4.64-1.68,7.85-5,9.57l5.49,16.76h-6.05l-4.93-15.16h-3.47Zm2.13-20.41c2.46,0,3.58-.28,4.48-1.17s1.4-2.43,1.4-4.48a6,6,0,0,0-1.4-4.42c-.9-.89-2-1.16-4.48-1.16h-2.13v11.23Z" transform="translate(-38.02 -138.18)"/><path class="cls-1" d="M321.46,144.9H310.31v9.73h8.23v5.26h-8.23v11.39h11.15v5.26H304.55v-36.9h16.91Z" transform="translate(-38.02 -138.18)"/><polygon class="cls-1" points="102.62 0.66 90.03 20.04 102.62 20.04 102.62 0.66"/></svg>